<svg width="694" height="798" viewBox="0 0 694 798" fill="none" xmlns="http://www.w3.org/2000/svg">
<g clip-path="url(#clip0_161_170)">
<g clip-path="url(#clip1_161_170)">
<path d="M215.093 316.276H215.491V310.568H214.817L214.425 302.451C214.381 301.549 213.981 300.701 213.312 300.093C212.643 299.486 211.76 299.169 210.857 299.213L180.437 300.684C179.99 300.705 179.552 300.815 179.147 301.006C178.742 301.197 178.379 301.465 178.079 301.797C177.778 302.128 177.545 302.515 177.394 302.936C177.243 303.357 177.177 303.804 177.198 304.251L180.223 366.818C180.266 367.72 180.667 368.569 181.336 369.176C182.005 369.783 182.888 370.1 183.79 370.056L214.211 368.586C214.658 368.564 215.096 368.455 215.501 368.264C215.905 368.073 216.268 367.804 216.569 367.473C216.87 367.141 217.102 366.754 217.253 366.333C217.404 365.912 217.471 365.465 217.449 365.018L215.093 316.276Z" fill="#2F2E41"/>
<path d="M197.785 333.143C201.897 332.944 205.082 329.721 204.899 325.944C204.717 322.166 201.235 319.265 197.124 319.464C193.012 319.663 189.826 322.886 190.009 326.664C190.191 330.441 193.673 333.342 197.785 333.143Z" fill="#F7C6B8"/>
<path d="M356.753 728.648C503.33 728.648 622.155 717.788 622.155 704.391C622.155 690.994 503.33 680.134 356.753 680.134C210.175 680.134 91.3506 690.994 91.3506 704.391C91.3506 717.788 210.175 728.648 356.753 728.648Z" fill="#3F3D56"/>
<path d="M127.617 663.499C134.323 688.29 157.294 703.643 157.294 703.643C157.294 703.643 169.391 678.803 162.685 654.013C155.978 629.222 133.008 613.868 133.008 613.868C133.008 613.868 120.91 638.709 127.617 663.499Z" fill="#3F3D56"/>
<path d="M137.471 658.171C155.873 676.085 158.121 703.623 158.121 703.623C158.121 703.623 130.533 702.117 112.13 684.203C93.7282 666.289 91.4805 638.751 91.4805 638.751C91.4805 638.751 119.069 640.258 137.471 658.171Z" fill="#F7C6B8"/>
<path d="M310.73 75.5641C310.73 75.5641 312.706 82.1483 301.513 88.0741C290.319 93.9999 287.027 116.386 300.196 122.97C313.364 129.555 317.315 138.114 310.73 144.04C304.146 149.966 292.295 165.768 308.097 169.718C323.899 173.669 325.874 181.57 321.265 184.862C316.656 188.154 331.8 178.936 331.8 178.936C331.8 178.936 334.434 194.738 348.26 190.788C362.087 186.837 400.934 111.777 381.181 101.242C361.429 90.7077 310.73 75.5641 310.73 75.5641Z" fill="#2F2E41"/>
<path d="M361.747 633.76L357.466 673.713L376.016 685.128L393.139 682.274L384.577 633.76H361.747Z" fill="#F7C6B8"/>
<path d="M347.478 154.324C369.543 154.324 387.431 136.436 387.431 114.371C387.431 92.3052 369.543 74.4176 347.478 74.4176C325.412 74.4176 307.525 92.3052 307.525 114.371C307.525 136.436 325.412 154.324 347.478 154.324Z" fill="#F7C6B8"/>
<path d="M333.923 133.634C333.923 133.634 330.355 194.277 326.075 194.277C321.794 194.277 376.016 191.423 376.016 191.423C376.016 191.423 353.186 151.47 364.601 138.628C376.016 125.786 333.923 133.634 333.923 133.634Z" fill="#F7C6B8"/>
<path d="M393.139 453.971L374.589 525.316L388.858 646.602L356.039 643.748L343.197 453.971H393.139Z" fill="#FD4E71"/>
<path d="M364.601 666.578C364.601 666.578 363.174 658.017 348.905 666.578C334.636 675.14 274.707 702.251 306.098 707.958C337.49 713.666 401.7 700.824 401.7 696.543C401.7 692.262 403.127 665.151 397.419 668.005C391.712 670.859 373.162 689.409 364.601 666.578Z" fill="#2F2E41"/>
<path d="M383.15 656.59C383.15 656.59 405.981 692.262 407.408 702.251C408.834 712.239 430.238 679.42 430.238 679.42L410.261 642.321L383.15 656.59Z" fill="#F7C6B8"/>
<path d="M307.525 459.679L333.209 545.292C333.209 545.292 378.87 666.578 381.723 665.151C384.577 663.724 418.823 655.163 420.249 650.882C421.676 646.602 377.443 531.023 377.443 531.023L371.735 456.825L307.525 459.679Z" fill="#FF6584"/>
<path d="M434.519 673.713C430.623 673.444 426.74 674.401 423.414 676.447C420.088 678.494 417.485 681.529 415.969 685.128C410.261 697.97 403.127 699.397 401.7 700.824C400.273 702.251 405.981 732.215 401.7 735.069C397.419 737.923 393.139 767.888 407.408 767.888C421.677 767.888 444.507 752.192 443.08 749.338C441.653 746.484 441.653 726.508 445.934 717.946C450.215 709.385 457.349 695.116 445.934 686.555C434.519 677.993 434.519 673.713 434.519 673.713Z" fill="#2F2E41"/>
<path d="M298.964 326.978L296.11 352.662C296.11 352.662 274.707 374.065 267.572 399.749C260.438 425.433 201.935 468.24 219.058 473.948C236.18 479.655 256.157 482.509 306.098 473.948C356.039 465.386 434.519 483.936 434.519 436.848C434.519 436.848 444.507 424.006 451.641 442.556C456.667 455.226 462.383 467.611 468.764 479.655C468.764 479.655 485.887 449.69 480.179 436.848C474.472 424.006 480.179 425.433 473.045 411.164C465.91 396.895 430.238 344.1 415.969 341.247C401.7 338.393 374.589 301.294 376.016 297.013C377.443 292.732 298.964 326.978 298.964 326.978Z" fill="#F7C6B8"/>
<path d="M376.016 167.166C376.016 167.166 317.513 180.008 314.659 188.569C313.054 193.385 305.58 202.264 299.347 209.111C288.824 220.5 281.829 234.694 279.207 249.976C277.719 259.079 283.976 267.265 286.835 277.75C295.396 309.141 301.817 301.294 293.256 324.124C284.695 346.954 336.063 355.515 356.039 345.527C376.016 335.539 398.133 276.323 398.133 269.188C398.133 262.054 417.396 181.435 401.7 175.727C386.004 170.019 376.016 167.166 376.016 167.166Z" fill="#575A88"/>
<path d="M294.683 235.656L277.56 311.282L221.198 336.252C221.198 336.252 178.391 326.264 176.964 341.96C176.033 352.207 225.479 356.229 225.479 356.229L307.525 324.124L326.074 254.206L294.683 235.656Z" fill="#F7C6B8"/>
<path d="M314.659 207.119C314.659 207.119 278.987 228.522 287.548 239.937C296.11 251.352 317.513 269.902 323.221 269.902C328.928 269.902 333.209 235.657 333.209 225.668C333.209 215.68 314.659 207.119 314.659 207.119Z" fill="#575A88"/>
<path d="M350.353 62.4896C350.353 62.4896 352.541 69.7836 340.141 76.3482C327.741 82.9127 324.094 107.712 338.682 115.006C353.27 122.3 357.647 131.782 350.353 138.347C343.059 144.912 329.929 162.417 347.435 166.794C364.941 171.17 367.129 179.923 362.023 183.57C356.917 187.217 373.693 177.005 373.693 177.005C373.693 177.005 376.611 194.511 391.928 190.134C407.246 185.758 422.529 106.205 405.454 85.7159C389.578 66.6644 350.353 62.4896 350.353 62.4896Z" fill="#2F2E41"/>
<path d="M345.693 54.9818C345.697 44.2958 377.667 51.9742 391.374 66.8943C400.866 77.2263 415.283 92.7704 403.202 103.727C391.121 114.685 423.91 129.048 432.704 133.403C441.498 137.758 458.86 151.075 443.183 160.009C427.506 168.944 427.759 177.962 433.659 180.097C439.559 182.233 420.65 176.923 420.65 176.923C420.65 176.923 422.561 194.566 406.631 194.482C390.701 194.398 344.998 106.85 355.916 82.5162C366.068 59.8897 345.693 54.9818 345.693 54.9818Z" fill="#2F2E41"/>
<path d="M352.618 52.64C309.865 50.0656 305.575 82.247 305.575 82.247C305.87 100.87 335.445 91.7961 343.659 94.5724C353.569 87.4435 372.671 73.9548 386.333 64.3286C376.414 57.3448 364.731 53.2941 352.618 52.64Z" fill="#2F2E41"/>
<path d="M167.645 234.776L163.539 233.432C148.881 228.49 139.252 225.334 135.822 217.603C135.143 216.143 134.765 214.562 134.708 212.954C134.652 211.345 134.918 209.742 135.493 208.238C136.067 206.734 136.937 205.361 138.051 204.2C139.166 203.039 140.502 202.113 141.98 201.477C143.721 200.716 145.606 200.343 147.504 200.383C149.403 200.424 151.271 200.878 152.977 201.712C153.503 199.887 154.42 198.199 155.664 196.763C156.908 195.328 158.45 194.181 160.182 193.402C161.646 192.732 163.229 192.363 164.838 192.316C166.446 192.27 168.048 192.546 169.548 193.129C171.048 193.713 172.416 194.591 173.571 195.712C174.725 196.834 175.643 198.175 176.27 199.658C179.7 207.389 175.577 216.646 169.405 230.829L167.645 234.776Z" fill="#FF6584"/>
<path d="M206.381 264.487L203.586 263.572C193.608 260.208 187.054 258.06 184.719 252.798C184.257 251.804 184 250.728 183.961 249.633C183.923 248.538 184.104 247.447 184.495 246.423C184.886 245.4 185.478 244.465 186.237 243.675C186.995 242.884 187.905 242.254 188.911 241.821C190.096 241.303 191.379 241.049 192.671 241.077C193.964 241.105 195.235 241.413 196.396 241.981C196.754 240.739 197.378 239.59 198.225 238.613C199.072 237.636 200.122 236.855 201.301 236.325C202.297 235.869 203.375 235.618 204.47 235.586C205.565 235.554 206.655 235.742 207.676 236.139C208.697 236.536 209.628 237.134 210.414 237.897C211.2 238.661 211.825 239.574 212.252 240.583C214.586 245.846 211.78 252.147 207.578 261.801L206.381 264.487Z" fill="#FF6584"/>
<path d="M181.974 134.732L179.322 132.276C169.906 123.405 163.688 117.646 163.779 110.573C163.773 109.226 164.037 107.893 164.555 106.651C165.074 105.408 165.836 104.283 166.797 103.34C167.758 102.398 168.899 101.658 170.151 101.164C171.403 100.67 172.742 100.433 174.088 100.465C175.676 100.494 177.239 100.869 178.668 101.562C180.097 102.256 181.358 103.252 182.364 104.482C183.4 103.278 184.687 102.315 186.133 101.658C187.58 101.002 189.152 100.668 190.74 100.68C192.086 100.682 193.418 100.954 194.657 101.48C195.897 102.006 197.018 102.775 197.954 103.742C198.891 104.709 199.624 105.853 200.11 107.109C200.596 108.364 200.826 109.704 200.785 111.049C200.694 118.123 194.33 123.72 184.688 132.346L181.974 134.732Z" fill="#FF6584"/>
<path d="M524.867 646.953H472.281V705.69H524.867V646.953Z" fill="#2F2E41"/>
<path d="M538.857 611L566.192 658.345L593.526 705.691H538.857H484.188L511.523 658.345L538.857 611Z" fill="#3F3D56"/>
</g>
</g>
<defs>
<clipPath id="clip0_161_170">
<rect width="694" height="798" fill="white"/>
</clipPath>
<clipPath id="clip1_161_170">
<rect width="817.155" height="717.888" fill="white" transform="translate(-195 50)"/>
</clipPath>
</defs>
</svg>
